<?xml version="1.0" encoding="UTF-8"?>
<!DOCTYPE svg PUBLIC "-//W3C//DTD SVG 1.1//EN" "http://www.w3.org/Graphics/SVG/1.1/DTD/svg11.dtd">
<svg xmlns="http://www.w3.org/2000/svg" version="1.1" width="178px" height="50px" style="shape-rendering:geometricPrecision; text-rendering:geometricPrecision; image-rendering:optimizeQuality; fill-rule:evenodd; clip-rule:evenodd" xmlns:xlink="http://www.w3.org/1999/xlink">
<g><path style="opacity:0.833" fill="#baa887" d="M -0.5,7.5 C 2.1569,7.16202 4.49024,7.82869 6.5,9.5C 10.599,16.0441 14.9324,22.3774 19.5,28.5C 24.6614,21.8306 29.6614,14.9972 34.5,8C 36.4727,7.50454 38.4727,7.33788 40.5,7.5C 40.5,21.5 40.5,35.5 40.5,49.5C 38.1667,49.5 35.8333,49.5 33.5,49.5C 33.6664,40.4938 33.4998,31.4938 33,22.5C 29.669,28.9833 25.169,34.3166 19.5,38.5C 17.4205,38.3142 15.9205,37.3142 15,35.5C 11.7484,30.6657 8.74845,25.6657 6,20.5C 5.5002,30.1609 5.33353,39.8276 5.5,49.5C 3.5,49.5 1.5,49.5 -0.5,49.5C -0.5,35.5 -0.5,21.5 -0.5,7.5 Z"/></g>
<g><path style="opacity:0.941" fill="#bba787" d="M 73.5,49.5 C 68.1667,49.5 62.8333,49.5 57.5,49.5C 44.5353,42.105 41.0353,31.4384 47,17.5C 58.7136,4.7297 70.7136,4.39637 83,16.5C 89.8301,30.4992 86.6635,41.4992 73.5,49.5 Z M 64.5,14.5 C 77.9462,17.1147 82.1129,24.7813 77,37.5C 69.8631,44.7726 62.5298,45.106 55,38.5C 49.1034,26.6634 52.27,18.6634 64.5,14.5 Z"/></g>
<g><path style="opacity:0.833" fill="#bba888" d="M 119.5,49.5 C 114.167,49.5 108.833,49.5 103.5,49.5C 90.5353,42.105 87.0353,31.4384 93,17.5C 101.969,6.64819 112.469,4.81486 124.5,12C 131.184,17.2126 133.851,24.0459 132.5,32.5C 120.829,32.3335 109.162,32.5001 97.5,33C 101.145,41.3399 107.479,44.3399 116.5,42C 119.076,41.2178 121.076,39.7178 122.5,37.5C 125.5,36.1667 128.5,36.1667 131.5,37.5C 128.451,42.5488 124.451,46.5488 119.5,49.5 Z M 108.5,14.5 C 116.431,13.7938 121.765,17.1271 124.5,24.5C 115.5,25.8333 106.5,25.8333 97.5,24.5C 99.9641,19.6961 103.631,16.3628 108.5,14.5 Z"/></g>
<g><path style="opacity:0.881" fill="#bca887" d="M 143.5,49.5 C 141.167,49.5 138.833,49.5 136.5,49.5C 136.338,47.4727 136.505,45.4727 137,43.5C 140.002,43.0035 142.002,41.3368 143,38.5C 143.695,30.9262 145.361,23.5929 148,16.5C 152.069,11.5958 157.235,8.59579 163.5,7.5C 164.474,9.74269 164.808,12.076 164.5,14.5C 157.932,15.2329 154.099,18.8995 153,25.5C 152.403,31.6901 151.07,37.6901 149,43.5C 147.64,46.0226 145.807,48.0226 143.5,49.5 Z"/></g>
</svg>
